<?xml version="1.0" encoding="UTF-8" standalone="no"?>
<!-- Created with Inkscape (http://www.inkscape.org/) -->

<svg
   xmlns:dc="http://purl.org/dc/elements/1.1/"
   xmlns:cc="http://creativecommons.org/ns#"
   xmlns:rdf="http://www.w3.org/1999/02/22-rdf-syntax-ns#"
   xmlns:svg="http://www.w3.org/2000/svg"
   xmlns="http://www.w3.org/2000/svg"
   xmlns:sodipodi="http://sodipodi.sourceforge.net/DTD/sodipodi-0.dtd"
   xmlns:inkscape="http://www.inkscape.org/namespaces/inkscape"
   width="2171.4043"
   height="2224.0669"
   id="svg2"
   version="1.1"
   inkscape:version="0.48.1 r9760"
   sodipodi:docname="tomato3.svg">
  <defs
     id="defs4" />
  <sodipodi:namedview
     id="base"
     pagecolor="#ffffff"
     bordercolor="#666666"
     borderopacity="1.0"
     inkscape:pageopacity="0.0"
     inkscape:pageshadow="2"
     inkscape:zoom="0.16"
     inkscape:cx="-96.381782"
     inkscape:cy="1415.5552"
     inkscape:document-units="px"
     inkscape:current-layer="layer1"
     showgrid="false"
     fit-margin-top="0"
     fit-margin-left="0"
     fit-margin-right="0"
     fit-margin-bottom="0"
     inkscape:window-width="1440"
     inkscape:window-height="843"
     inkscape:window-x="-4"
     inkscape:window-y="-4"
     inkscape:window-maximized="1" />
  <metadata
     id="metadata7">
    <rdf:RDF>
      <cc:Work
         rdf:about="">
        <dc:format>image/svg+xml</dc:format>
        <dc:type
           rdf:resource="http://purl.org/dc/dcmitype/StillImage" />
        <dc:title></dc:title>
      </cc:Work>
    </rdf:RDF>
  </metadata>
  <g
     inkscape:label="Layer 1"
     inkscape:groupmode="layer"
     id="layer1"
     transform="translate(-48549.898,-28592.687)">
    <path
       inkscape:connector-curvature="0"
       id="path3006"
       d="m 49554.329,30730.806 c -3.025,-0.414 -7.3,-1.032 -9.5,-1.373 -2.2,-0.341 -13.9,-1.758 -26,-3.15 -212.727,-24.468 -395.776,-87.045 -542,-185.289 -92.277,-61.998 -174.597,-143.456 -230.049,-227.64 -43.409,-65.902 -72.893,-134.241 -92.88,-215.283 -11.252,-45.625 -15.004,-72.769 -17.651,-127.717 -1.148,-23.82 -0.491,-82.293 1.089,-97 0.532,-4.95 1.452,-16.65 2.044,-26 2.773,-43.77 8.943,-80.333 20.924,-124 38.563,-140.548 117.023,-251.306 232.523,-328.237 79.6,-53.02 177.656,-89.54 287.982,-107.254 25.867,-4.154 37.218,-5.583 71.518,-9.006 46.573,-4.648 68.153,-8.633 81.668,-15.083 7.055,-3.367 9.835,-6.358 11.433,-12.301 0.61,-2.265 1.781,-5.422 2.604,-7.013 l 1.495,-2.895 9.15,0.621 c 19.659,1.332 60.71,10.192 88.39,19.077 22.176,7.118 21.851,7.133 59.424,-2.722 9.716,-2.548 29.066,-6.929 43,-9.735 33.985,-6.843 33.72,-6.709 53.712,-27.148 8.593,-8.785 19.449,-19.021 24.124,-22.746 36.229,-28.865 84.038,-49.803 130.5,-57.154 9.204,-1.456 10.851,-0.752 13.806,5.901 4.032,9.075 6.848,19.583 6.507,24.283 -0.293,4.039 -0.793,4.701 -7.813,10.347 -9.915,7.974 -36.461,34.003 -44.94,44.065 -13.133,15.584 -14.823,20.02 -8.81,23.13 1.787,0.924 10.225,3.598 18.75,5.942 13.97,3.84 27.107,8.248 47.494,15.935 11.343,4.277 15.716,4.779 22.325,2.563 15.899,-5.329 40.82,-9.951 86.181,-15.982 57.695,-7.672 88.29,-9.58 140.5,-8.764 89.342,1.396 146.6,9.727 211,30.699 164.497,53.568 278.996,169.727 343.992,348.976 21.906,60.415 38.456,134.056 44.948,200.001 0.894,9.075 2.13,18.525 2.747,21 1.49,5.969 2.285,91.369 0.964,103.5 -12.96,119.002 -38.072,210.224 -82.723,300.5 -33.24,67.205 -73.087,125.518 -121.719,178.127 -133.229,144.122 -318.123,238.833 -549.209,281.33 -20.524,3.774 -52.83,8.861 -66.5,10.471 -14.934,1.759 -62.901,4.878 -109,7.087 -21.485,1.03 -144.398,0.979 -152,-0.06 z"
       style="fill:#fd0000;stroke:#000000;stroke-width:170.30000305;stroke-miterlimit:4;stroke-opacity:1;stroke-dasharray:none"
       sodipodi:nodetypes="cscsssssssscsscccccccsccccccccsccssscccsscsccc" />
    <path
       style="fill:#008000;stroke:#000000;stroke-width:84.09999847;stroke-linecap:butt;stroke-linejoin:miter;stroke-miterlimit:4;stroke-opacity:1;stroke-dasharray:none"
       d="m 49529.725,29013.802 c 76.932,-43.962 157.555,-379.061 335.147,-379.061 116.23,0 -159.222,259.429 -77.034,356.71 134.334,159.003 390.316,-82.676 546.239,163.398 308.808,487.355 -492.63,201.773 -730.811,201.773 -110.525,0 -514.192,262.528 -550.194,220.711 -288.336,-334.91 330.643,-540.488 476.653,-563.531 z"
       id="path3028"
       inkscape:connector-curvature="0"
       sodipodi:nodetypes="csssssc" />
  </g>
</svg>
